HIERARCHY
ROOT Hips
{
	OFFSET 0.00000 0.00000 0.00000
	CHANNELS 6 Xposition Yposition Zposition Zrotation Yrotation Xrotation 
	JOINT LHipJoint
	{
		OFFSET 0 0 0
		CHANNELS 3 Zrotation Yrotation Xrotation
		JOINT LeftUpLeg
		{
			OFFSET 1.23340 -1.80723 0.69510
			CHANNELS 3 Zrotation Yrotation Xrotation
			JOINT LeftLeg
			{
				OFFSET 2.50056 -6.87023 0.00000
				CHANNELS 3 Zrotation Yrotation Xrotation
				JOINT LeftFoot
				{
					OFFSET 2.85931 -7.85591 0.00000
					CHANNELS 3 Zrotation Yrotation Xrotation
					JOINT LeftToeBase
					{
						OFFSET 0.21001 -0.57700 2.07823
						CHANNELS 3 Zrotation Yrotation Xrotation
						End Site
						{
							OFFSET 0.00000 -0.00000 1.08338
						}
					}
				}
			}
		}
	}
	JOINT RHipJoint
	{
		OFFSET 0 0 0
		CHANNELS 3 Zrotation Yrotation Xrotation
		JOINT RightUpLeg
		{
			OFFSET -1.40842 -1.80723 0.69510
			CHANNELS 3 Zrotation Yrotation Xrotation
			JOINT RightLeg
			{
				OFFSET -2.54876 -7.00266 0.00000
				CHANNELS 3 Zrotation Yrotation Xrotation
				JOINT RightFoot
				{
					OFFSET -2.74835 -7.55104 0.00000
					CHANNELS 3 Zrotation Yrotation Xrotation
					JOINT RightToeBase
					{
						OFFSET -0.22633 -0.62184 2.00890
						CHANNELS 3 Zrotation Yrotation Xrotation
						End Site
						{
							OFFSET -0.00000 -0.00000 1.05493
						}
					}
				}
			}
		}
	}
	JOINT LowerBack
	{
		OFFSET 0 0 0
		CHANNELS 3 Zrotation Yrotation Xrotation
		JOINT Spine
		{
			OFFSET -0.02340 2.02740 -0.12728
			CHANNELS 3 Zrotation Yrotation Xrotation
			JOINT Spine1
			{
				OFFSET -0.00862 2.03614 -0.01188
				CHANNELS 3 Zrotation Yrotation Xrotation
				JOINT Neck
				{
					OFFSET 0 0 0
					CHANNELS 3 Zrotation Yrotation Xrotation
					JOINT Neck1
					{
						OFFSET 0.03380 1.76650 0.27670
						CHANNELS 3 Zrotation Yrotation Xrotation
						JOINT Head
						{
							OFFSET -0.01114 1.80516 -0.21451
							CHANNELS 3 Zrotation Yrotation Xrotation
							End Site
							{
								OFFSET -0.00766 1.81942 -0.10287
							}
						}
					}
				}
				JOINT LeftShoulder
				{
					OFFSET 0 0 0
					CHANNELS 3 Zrotation Yrotation Xrotation
					JOINT LeftArm
					{
						OFFSET 3.22358 1.39475 0.18630
						CHANNELS 3 Zrotation Yrotation Xrotation
						JOINT LeftForeArm
						{
							OFFSET 5.45077 -0.00000 0.00000
							CHANNELS 3 Zrotation Yrotation Xrotation
							JOINT LeftHand
							{
								OFFSET 3.05488 -0.00000 0.00000
								CHANNELS 3 Zrotation Yrotation Xrotation
								JOINT LeftFingerBase
								{
									OFFSET 0 0 0
									CHANNELS 3 Zrotation Yrotation Xrotation
									JOINT LeftHandIndex1
									{
										OFFSET 0.63882 -0.00000 0.00000
										CHANNELS 3 Zrotation Yrotation Xrotation
										End Site
										{
											OFFSET 0.51503 -0.00000 0.00000
										}
									}
								}
								JOINT LThumb
								{
									OFFSET 0 0 0
									CHANNELS 3 Zrotation Yrotation Xrotation
									End Site
									{
										OFFSET 0.52290 -0.00000 0.52290
									}
								}
							}
						}
					}
				}
				JOINT RightShoulder
				{
					OFFSET 0 0 0
					CHANNELS 3 Zrotation Yrotation Xrotation
					JOINT RightArm
					{
						OFFSET -3.57143 1.14055 0.30691
						CHANNELS 3 Zrotation Yrotation Xrotation
						JOINT RightForeArm
						{
							OFFSET -4.88702 -0.00000 -0.00000
							CHANNELS 3 Zrotation Yrotation Xrotation
							JOINT RightHand
							{
								OFFSET -3.22603 -0.00000 0.00000
								CHANNELS 3 Zrotation Yrotation Xrotation
								JOINT RightFingerBase
								{
									OFFSET 0 0 0
									CHANNELS 3 Zrotation Yrotation Xrotation
									JOINT RightHandIndex1
									{
										OFFSET -0.71629 -0.00000 0.00000
										CHANNELS 3 Zrotation Yrotation Xrotation
										End Site
										{
											OFFSET -0.57749 -0.00000 0.00000
										}
									}
								}
								JOINT RThumb
								{
									OFFSET 0 0 0
									CHANNELS 3 Zrotation Yrotation Xrotation
									End Site
									{
										OFFSET -0.58631 -0.00000 0.58631
									}
								}
							}
						}
					}
				}
			}
		}
	}
}
MOTION
Frames: 11
Frame Time: .0083333
0.4649 18.6003 0.4128 -288.7150 86.7201 -268.6400 0.0000 0.0000 0.0000 -20.6793 -1.3629 -29.2222 0.7799 5.6382 15.7383 0.1380 -3.5662 -6.6834 2.4001 -9.6539 -27.8631 0.0000 0.0000 0.0000 13.0547 3.8224 -24.8528 -0.3028 -3.5378 9.7798 -0.0155 4.7017 -3.8165 -0.2558 3.2541 -8.9871 -0.2630 -1.0547 1.4204 -1.3750 -1.3746 1.7241 -1.2522 -0.6713 0.9418 4.9266 1.2982 -20.0160 -1.5007 0.6548 15.4982 -1.2210 0.4581 8.1151 -0.0000 -0.0000 0.0000 -127.3882 -68.7783 65.0218 37.7484 -46.6779 -16.7823 -0.0000 0.0000 -77.7563 20.9807 25.7502 9.4586 -7.1250 0.0000 -0.0000 -9.7457 57.0343 -2.8924 -0.0000 -0.0000 0.0000 142.5794 68.5907 82.5417 -31.8554 42.4316 -12.6432 0.0000 -0.0000 -61.3768 -37.8553 1.5339 -1.1919 7.1250 -0.0000 -0.0000 -8.6976 -27.9999 -3.6349
0.4667 18.6007 0.4130 -288.5790 86.7784 -268.5160 0.0000 0.0000 0.0000 -20.5814 -1.4368 -29.1759 0.7797 5.6377 15.7368 0.1396 -3.5005 -6.7099 2.3796 -9.6157 -27.7410 0.0000 0.0000 0.0000 13.1157 3.8411 -24.8041 -0.3009 -3.5273 9.7503 -0.0157 4.6661 -3.8027 -0.2682 3.3314 -9.2028 -0.2388 -1.0408 1.4374 -1.3229 -1.3570 1.7245 -1.2121 -0.6628 0.9336 4.8589 1.2759 -20.0083 -1.5031 0.6448 15.4949 -1.2122 0.4488 8.1119 0.0000 0.0000 0.0000 -127.4682 -68.7090 65.1037 37.7425 -46.6740 -16.7780 -0.0000 0.0000 -77.7663 21.1633 25.8262 9.5731 -7.1250 0.0000 -0.0000 -9.5873 57.1510 -2.8718 0.0000 0.0000 0.0000 142.5416 68.5419 82.3906 -31.8456 42.4237 -12.6365 0.0000 -0.0000 -61.4421 -37.7557 1.6341 -1.2652 7.1250 -0.0000 -0.0000 -8.6098 -27.8779 -3.6225
0.4680 18.5999 0.4123 -288.7500 86.7525 -268.6810 0.0000 0.0000 0.0000 -20.6060 -1.4295 -29.1835 0.7807 5.6412 15.7469 0.1396 -3.5558 -6.7162 2.2980 -9.4610 -27.2483 0.0000 0.0000 0.0000 13.0774 3.8778 -24.7626 -0.2977 -3.5084 9.6975 -0.0165 4.5820 -3.7801 -0.2531 3.2372 -8.9399 -0.2891 -1.0398 1.4388 -1.3082 -1.3561 1.7219 -1.1689 -0.6630 0.9317 4.8752 1.2834 -20.0471 -1.5636 0.6601 15.5390 -1.2334 0.4511 8.1341 -0.0000 -0.0000 0.0000 -127.4812 -68.6942 65.0709 37.6841 -46.6364 -16.7356 -0.0000 0.0000 -77.8111 21.1752 25.8026 9.5709 -7.1250 0.0000 -0.0000 -9.5633 57.1295 -2.8596 -0.0000 -0.0000 0.0000 142.5662 68.4635 82.3095 -31.8499 42.4272 -12.6394 0.0000 -0.0000 -61.5558 -37.8421 1.7028 -1.3224 7.1250 -0.0000 -0.0000 -8.6677 -27.7890 -3.6658
0.4685 18.6002 0.4126 -288.8730 86.7404 -268.8250 0.0000 0.0000 0.0000 -20.6039 -1.4440 -29.1511 0.7811 5.6426 15.7509 0.1417 -3.5120 -6.7591 2.3142 -9.4920 -27.3468 0.0000 0.0000 0.0000 13.0654 3.8826 -24.7357 -0.2976 -3.5077 9.6955 -0.0167 4.5796 -3.7837 -0.2520 3.2301 -8.9199 -0.3462 -1.0238 1.4790 -1.2713 -1.3362 1.7170 -1.0984 -0.6540 0.9067 4.8751 1.2902 -20.0261 -1.6250 0.6828 15.5550 -1.2513 0.4556 8.1367 0.0000 0.0000 0.0000 -127.6500 -68.6225 65.1086 37.6562 -46.6183 -16.7153 -0.0000 0.0000 -77.8431 21.2629 25.8879 9.6426 -7.1250 0.0000 -0.0000 -9.5103 57.2352 -2.8679 0.0000 0.0000 0.0000 142.4846 68.4449 82.1836 -31.8056 42.3916 -12.6096 0.0000 -0.0000 -61.7334 -37.8961 1.7000 -1.3228 7.1250 -0.0000 -0.0000 -8.7093 -27.7906 -3.6834
0.4699 18.6008 0.4130 -288.1430 86.7660 -268.0500 0.0000 0.0000 0.0000 -20.5945 -1.4529 -29.1996 0.7810 5.6423 15.7501 0.1377 -3.5741 -6.6784 2.3300 -9.5220 -27.4421 0.0000 0.0000 0.0000 13.0759 3.8946 -24.7914 -0.3001 -3.5224 9.7367 -0.0184 4.5625 -3.8312 -0.2487 3.2090 -8.8612 -0.3511 -1.0191 1.4507 -1.2299 -1.3309 1.6956 -1.0536 -0.6521 0.9018 4.8299 1.2740 -20.0955 -1.6333 0.6723 15.6780 -1.2486 0.4484 8.1895 0.0000 0.0000 0.0000 -127.7778 -68.5373 65.1400 37.5645 -46.5589 -16.6487 -0.0000 0.0000 -77.8720 21.1708 25.8216 9.5751 -7.1250 0.0000 -0.0000 -9.5771 57.1480 -2.8680 0.0000 0.0000 0.0000 142.3982 68.4289 82.0365 -31.7756 42.3676 -12.5894 0.0000 -0.0000 -61.8516 -37.9101 1.5600 -1.2146 7.1250 -0.0000 -0.0000 -8.7365 -27.9654 -3.6587
0.4718 18.6005 0.4120 -288.0280 86.7190 -267.8850 0.0000 0.0000 0.0000 -20.6760 -1.4328 -29.2539 0.7814 5.6434 15.7532 0.1370 -3.6062 -6.6669 2.3851 -9.6260 -27.7739 0.0000 0.0000 0.0000 13.0185 3.8776 -24.8871 -0.3042 -3.5458 9.8023 -0.0177 4.6360 -3.8499 -0.2653 3.3135 -9.1529 -0.4120 -1.0036 1.4112 -1.2126 -1.3112 1.6691 -1.0023 -0.6432 0.8988 4.7778 1.2537 -20.0575 -1.6377 0.6629 15.6793 -1.2428 0.4404 8.1828 -0.0000 0.0000 0.0000 -127.9218 -68.4248 65.1482 37.4515 -46.4854 -16.5667 -0.0000 0.0000 -77.8638 21.0508 25.7476 9.4918 -7.1250 0.0000 -0.0000 -9.6698 57.0467 -2.8725 -0.0000 0.0000 0.0000 142.3645 68.4368 81.9779 -31.6665 42.2797 -12.5159 0.0000 -0.0000 -62.0193 -37.9998 1.7355 -1.3554 7.1250 -0.0000 -0.0000 -8.7840 -27.7425 -3.7258
0.4738 18.6000 0.4111 -287.5890 86.6964 -267.3960 0.0000 0.0000 0.0000 -20.7711 -1.3284 -29.3583 0.7822 5.6464 15.7619 0.1353 -3.6817 -6.6405 2.4279 -9.7056 -28.0284 0.0000 0.0000 0.0000 12.9836 3.8593 -24.9660 -0.3071 -3.5629 9.8501 -0.0178 4.6615 -3.8678 -0.2637 3.3035 -9.1250 -0.4465 -0.9985 1.3765 -1.1900 -1.3058 1.6283 -0.9601 -0.6414 0.8778 4.7770 1.2481 -19.9569 -1.6945 0.6721 15.6401 -1.2606 0.4386 8.1527 -0.0000 -0.0000 0.0000 -127.9282 -68.3270 65.0470 37.3767 -46.4366 -16.5125 -0.0000 0.0000 -77.8829 21.0132 25.8212 9.4983 -7.1250 0.0000 -0.0000 -9.7449 57.1135 -2.9108 -0.0000 -0.0000 0.0000 142.1977 68.3831 81.7970 -31.6235 42.2450 -12.4870 0.0000 -0.0000 -62.2246 -38.1881 1.8844 -1.4816 7.1250 -0.0000 -0.0000 -8.9093 -27.5487 -3.8214
0.4752 18.6014 0.4107 -287.1260 86.6848 -266.9270 0.0000 0.0000 0.0000 -20.8065 -1.2991 -29.3740 0.7823 5.6467 15.7627 0.1348 -3.7479 -6.6388 2.4410 -9.7299 -28.1064 0.0000 0.0000 0.0000 12.9701 3.8209 -24.9836 -0.3090 -3.5738 9.8807 -0.0177 4.6774 -3.8752 -0.2657 3.3157 -9.1590 -0.4872 -1.0056 1.3889 -1.1648 -1.3168 1.5943 -0.9108 -0.6478 0.8374 4.8203 1.2654 -19.9163 -1.7751 0.7019 15.6659 -1.2912 0.4474 8.1558 -0.0000 -0.0000 0.0000 -127.9665 -68.2524 64.9040 37.2822 -46.3747 -16.4440 -0.0000 0.0000 -77.8575 21.0299 25.8590 9.5192 -7.1250 0.0000 -0.0000 -9.7451 57.1554 -2.9208 -0.0000 -0.0000 0.0000 142.2343 68.2704 81.6311 -31.5541 42.1888 -12.4403 0.0000 -0.0000 -62.2150 -38.1662 1.6992 -1.3351 7.1250 -0.0000 -0.0000 -8.9152 -27.7820 -3.7743
0.4759 18.6015 0.4104 -286.6560 86.7078 -266.4730 0.0000 0.0000 0.0000 -20.7564 -1.3475 -29.3190 0.7801 5.6388 15.7399 0.1349 -3.7483 -6.6420 2.3448 -9.5501 -27.5316 0.0000 0.0000 0.0000 12.9817 3.8510 -24.9687 -0.3110 -3.5852 9.9126 -0.0198 4.6149 -3.9044 -0.2692 3.3374 -9.2197 -0.4936 -1.0122 1.4280 -1.1304 -1.3266 1.5876 -0.8710 -0.6530 0.8095 4.8066 1.2553 -19.9119 -1.8014 0.6976 15.6832 -1.2985 0.4420 8.1607 -0.0000 -0.0000 0.0000 -128.0649 -68.2162 64.7991 37.1498 -46.2876 -16.3483 -0.0000 0.0000 -77.7882 20.8932 25.9642 9.4878 -7.1250 0.0000 -0.0000 -9.9417 57.2327 -2.9991 -0.0000 -0.0000 0.0000 142.4484 68.2023 81.6245 -31.3937 42.0585 -12.3328 0.0000 -0.0000 -62.1640 -37.8101 1.7832 -1.3832 7.1250 -0.0000 -0.0000 -8.6338 -27.6896 -3.6716
0.4768 18.6007 0.4108 -286.1200 86.7406 -265.9550 0.0000 0.0000 0.0000 -20.7599 -1.2586 -29.3296 0.7770 5.6279 15.7085 0.1321 -3.8405 -6.5958 2.3668 -9.5916 -27.6642 0.0000 0.0000 0.0000 13.0111 3.8568 -24.9587 -0.3133 -3.5981 9.9487 -0.0211 4.6401 -3.9609 -0.2755 3.3758 -9.3268 -0.5244 -1.0187 1.4462 -1.0719 -1.3364 1.5892 -0.7935 -0.6587 0.8028 4.7545 1.2532 -19.8950 -1.7894 0.7086 15.7127 -1.2847 0.4457 8.1678 -0.0000 -0.0000 0.0000 -128.2104 -68.1644 64.7938 37.0268 -46.2063 -16.2594 -0.0000 0.0000 -77.6929 20.8520 25.7550 9.3979 -7.1250 0.0000 -0.0000 -9.8849 57.0116 -2.9288 -0.0000 -0.0000 0.0000 142.3977 68.1221 81.4663 -31.3538 42.0259 -12.3061 0.0000 -0.0000 -62.2844 -37.2902 1.9711 -1.5004 7.1250 -0.0000 -0.0000 -8.2163 -27.4747 -3.5327
0.4776 18.6010 0.4107 -285.8690 86.6568 -265.7390 0.0000 0.0000 0.0000 -20.8968 -1.1738 -29.3243 0.7767 5.6270 15.7059 0.1282 -3.9382 -6.5261 2.4272 -9.7043 -28.0243 0.0000 0.0000 0.0000 12.9320 3.7882 -24.9287 -0.3117 -3.5894 9.9243 -0.0198 4.6712 -3.9371 -0.2511 3.2243 -8.9038 -0.6430 -1.0087 1.4842 -1.0590 -1.3241 1.5946 -0.7133 -0.6537 0.7903 4.6576 1.2411 -19.8961 -1.6863 0.7005 15.7947 -1.2355 0.4480 8.1947 -0.0000 -0.0000 0.0000 -128.2871 -68.0759 64.7886 37.0926 -46.2499 -16.3069 -0.0000 0.0000 -77.6373 21.1416 25.8011 9.5540 -7.1250 0.0000 -0.0000 -9.5985 57.1208 -2.8682 -0.0000 -0.0000 0.0000 142.4089 68.0873 81.3042 -31.2672 41.9551 -12.2481 0.0000 -0.0000 -62.4288 -37.0994 1.9943 -1.5076 7.1250 -0.0000 -0.0000 -8.0687 -27.4532 -3.4721
